<svg width="614" height="363" viewBox="0 0 614 363" fill="none" xmlns="http://www.w3.org/2000/svg">
<path d="M609.796 191.658C599.489 122.562 458.294 14.4614 297.675 14.4614C100.546 14.4614 6.96392 81.094 6.84944 188.5C6.8074 227.761 9.24386 261.441 25.3635 288.423H601.492C613.32 264.495 615.966 233.014 609.796 191.658Z" fill="#96EDCE"/>
<path d="M25.1176 288.424C53.4268 335.81 123.947 362.536 297.429 362.539C470.546 362.541 569.334 352.98 601.245 288.424H25.1176Z" fill="#86D3B8"/>
<g opacity="0.7">
<path opacity="0.7" d="M239.837 309.188C251.114 308.422 272.166 306.136 279.321 304.64C294.527 302.396 302.755 303.964 317.96 303.216C364.472 302.468 410.983 293.491 457.494 294.239C476.277 294.239 520.105 291.995 530.838 309.2C539.783 323.412 522.515 330.359 509.372 335.38C463.051 353.077 422.568 345.515 382.318 338.783C337.596 331.303 296.267 343.556 252.907 351.581C224.615 356.817 151.594 352.585 148.91 333.136C145.333 312.191 217.721 314.193 239.837 309.188Z" fill="#214F3E"/>
</g>
<path d="M609.198 276.653H6.84854V288.423H609.198V276.653Z" fill="white"/>
<path d="M505.928 271.829C504.055 258.61 501.995 244.281 501.995 244.281H493.852L500.807 276.846C502.727 275.351 504.496 273.731 505.928 271.829Z" fill="#99887F"/>
<path d="M505.928 271.829C504.496 273.731 502.727 275.351 500.807 276.846L504.437 293.838C505.794 296.598 509.051 295.678 508.917 293.575C508.856 292.632 507.454 282.599 505.928 271.829Z" fill="#AD9B90"/>
<path d="M463.827 243.814H455.523C455.523 243.814 453.143 260.046 451.146 273.896C452.904 274.871 454.689 275.991 456.608 276.949L463.827 243.814Z" fill="#99887F"/>
<path d="M451.146 273.896C449.738 283.659 448.521 292.239 448.464 293.109C448.328 295.212 451.649 296.132 453.031 293.372L456.608 276.95C454.689 275.991 452.904 274.871 451.146 273.896Z" fill="#AD9B90"/>
<path d="M524.482 193.282H433.473V261.112H524.482V193.282Z" fill="#DFDFDF"/>
<path d="M521.653 195.254H436.773V225.62H521.653V195.254Z" fill="#FCA39F"/>
<path opacity="0.8" d="M478.54 214.525C479.89 214.525 480.984 213.61 480.984 212.482C480.984 211.353 479.89 210.438 478.54 210.438C477.19 210.438 476.096 211.353 476.096 212.482C476.096 213.61 477.19 214.525 478.54 214.525Z" fill="#C6C6C6"/>
<path d="M521.653 227.197H436.773V259.139H521.653V227.197Z" fill="#BD5B57"/>
<path d="M436.773 310.406C436.617 312.509 440.389 313.429 441.961 310.67L452.938 266.299C449.967 266.171 446.99 266.014 444.006 265.831C442.012 277.832 436.899 308.713 436.773 310.406Z" fill="#CFBEB1"/>
<path d="M444.789 261.111C444.789 261.111 444.489 262.917 444.005 265.83C446.989 266.013 449.966 266.17 452.938 266.299L454.221 261.111H444.789Z" fill="#BFADA1"/>
<path d="M504.42 266.445L515.36 310.669C516.931 313.428 520.704 312.508 520.549 310.405C520.422 308.728 515.4 278.385 513.371 266.157C510.384 266.262 507.401 266.36 504.42 266.445Z" fill="#CFBEB1"/>
<path d="M512.532 261.111H503.101L504.421 266.445C507.402 266.36 510.385 266.262 513.372 266.157C512.855 263.05 512.532 261.111 512.532 261.111Z" fill="#BFADA1"/>
<path d="M479.213 213.789C480.468 213.789 481.486 212.938 481.486 211.889C481.486 210.839 480.468 209.988 479.213 209.988C477.958 209.988 476.94 210.839 476.94 211.889C476.94 212.938 477.958 213.789 479.213 213.789Z" fill="white"/>
<path opacity="0.8" d="M478.54 245.858C479.89 245.858 480.984 244.943 480.984 243.814C480.984 242.685 479.89 241.77 478.54 241.77C477.19 241.77 476.096 242.685 476.096 243.814C476.096 244.943 477.19 245.858 478.54 245.858Z" fill="#C6C6C6"/>
<path d="M479.213 245.069C480.468 245.069 481.486 244.218 481.486 243.168C481.486 242.119 480.468 241.268 479.213 241.268C477.958 241.268 476.94 242.119 476.94 243.168C476.94 244.218 477.958 245.069 479.213 245.069Z" fill="#FDFDFD"/>
<path d="M165.29 155.432L269.011 149.995C269.011 149.995 283.194 148.018 294.129 162.104C305.063 176.191 319.837 212.518 319.837 212.518L328.408 238.986L282.511 248.878L206.364 243.162L165.29 155.432Z" fill="#BD5B57"/>
<path d="M319.298 211.207L394.895 218.515L389.873 243.028L326.34 238.492L319.298 211.207Z" fill="#C07572"/>
<path d="M282.766 257.305L280.831 245.927L389.873 240.84L390.169 277.051L287.333 295.578L282.766 257.305Z" fill="#AD8779"/>
<path d="M389.153 242.138C389.153 242.138 390.73 239.179 379.233 238.256C361.096 236.801 323.908 236.654 322.202 237.021L280.819 243.029L282.766 257.306C282.766 257.306 310.74 254.563 340.119 250.493C357.746 248.05 375.808 244.878 389.153 242.138Z" fill="#BD5B57"/>
<path d="M285.65 277.319L288.085 295.455L388.674 277.319V260.891L285.65 277.319Z" fill="#C07572"/>
<path d="M283.21 257.598C283.21 257.598 320.535 253.783 339.729 251.007C365.731 247.246 388.675 242.792 388.675 242.792V260.131L285.651 276.885L283.21 257.598Z" fill="#FCA39F"/>
<path d="M388.986 277.319L404.353 273.831C404.353 273.831 401.266 223.033 400.676 221.056C400.084 219.079 388.986 216.127 388.986 221.863C388.986 226.26 388.986 277.319 388.986 277.319Z" fill="#FCA39F"/>
<path d="M269.765 298.462L271.67 335.778L279.321 334.13L279.812 296.484L269.765 298.462Z" fill="#CFBEB1"/>
<path d="M374.174 279.98L374.804 287.259L368.72 288.263L279.321 304.64L279.812 296.484L374.174 279.98Z" fill="#CFBEB1"/>
<path opacity="0.2" d="M335.942 239.057L281.805 249.929L281.662 246.5L317.908 239.057H335.942Z" fill="#636363"/>
<path d="M374.174 279.98L381.465 278.669L383.075 310.901L377.004 312.709L374.174 279.98Z" fill="#CFBEB1"/>
<path d="M373.374 312.129L377.004 312.709L374.804 287.259L368.72 288.263L373.374 312.129Z" fill="#AD9B90"/>
<path opacity="0.1" d="M334.143 224.299L345.466 236.812L340.865 236.851L334.143 224.299Z" fill="#636363"/>
<path d="M265.135 298.339L269.765 298.462L271.67 335.778L268.288 334.955L265.135 298.339Z" fill="#AD9B90"/>
<path opacity="0.1" d="M229.124 185.606L235.246 228.718L248.615 230.071L236.206 195.707L229.124 185.606Z" fill="#636363"/>
<path d="M265.135 298.338L265.483 302.385L195.824 292.861L197.761 288.165L265.135 298.338Z" fill="#99887F"/>
<path d="M195.322 281.391L180.819 321.939L182.395 323.894L198.068 288.211L195.322 281.391Z" fill="#99887F"/>
<path d="M200.264 293.421L195.824 292.861L182.395 323.894L187.259 322.701L200.264 293.421Z" fill="#70615A"/>
<path d="M340.672 235.775C317.417 235.775 293.267 239.515 270.906 232.783C254.32 227.235 244.655 214.614 236.206 202.67C237.498 209.116 239.43 216.11 242.924 224.159C248.135 236.164 254.576 243.607 254.576 243.607C254.576 243.607 265.214 247.313 270.829 247.066C274.633 246.899 299.276 246.24 317.909 240.745C325.959 238.371 338.257 240.853 340.865 236.851C341.034 236.59 341.068 236.219 341.009 235.773C340.896 235.773 340.783 235.775 340.672 235.775Z" fill="#DDDDDD"/>
<path d="M270.906 232.783C293.267 239.515 317.417 235.775 340.672 235.775C340.783 235.775 340.896 235.773 341.008 235.772C340.279 230.333 323.772 212.143 321.634 206.827C317.77 197.218 316.398 181.789 313.418 178.459C312.029 176.907 307.411 183.715 296.887 182.392C284.994 180.896 270.203 179.525 245.755 184.636C240.13 185.812 229.794 184.056 229.794 184.056C226.803 186.652 234.757 194.318 235.209 197.128C235.5 198.936 235.826 200.781 236.205 202.671C244.655 214.614 254.32 227.235 270.906 232.783Z" fill="#E9EBEC"/>
<path d="M165.324 155.355C164.437 155.325 181.576 236.66 181.576 236.66L197.829 289.546L269.16 298.936C269.16 298.936 266.101 252.107 265.203 242.344C264.612 235.919 260.771 235.177 242.746 233.2C242.746 233.2 222.489 230.264 208.762 227.022C196.805 224.198 188.245 204.296 182.759 181.797C176.551 156.344 172.71 155.603 165.324 155.355Z" fill="#FCA39F"/>
<path d="M268.403 298.936L287.333 295.579C287.333 295.579 281.328 242.68 280.092 239.234C278.32 234.292 271.762 232.117 246.644 229.893C221.32 227.651 214.574 226.404 209.517 225.395C206.838 224.861 202.82 224.16 202.82 224.16C206.759 229.761 257.578 233.617 262.01 238.295C266.627 243.169 265.068 246.06 266.196 260.891C267.735 281.144 268.403 298.936 268.403 298.936Z" fill="#FCA39F"/>
<path d="M80.3737 165.518C80.3737 165.518 82.6 166.291 84.8629 165.123C87.125 163.955 88.4783 163.104 88.1777 159.506C87.9326 156.567 83.6635 153.789 80.3737 151.806C79.7485 161.519 70.3666 167.089 60.06 169.971C62.9767 170.648 67.3783 169.673 70.1806 168.008C73.4337 166.076 74.5526 164.736 75.202 165.672C75.8514 166.607 73.7128 167.681 72.5652 167.99C71.4185 168.299 66.4803 170.572 64.8739 171.713C63.2683 172.853 72.3335 170.275 73.779 171.171C75.2253 172.068 81.6384 173.734 83.5964 172.704C85.5534 171.675 88.0176 170.434 86.2708 168.118C84.7359 166.082 80.1939 167.953 80.3737 165.518Z" fill="#476348"/>
<path d="M80.3737 151.805C79.6367 151.361 78.947 150.955 78.3648 150.598C75.1832 148.644 67.4597 148.181 66.5697 148.1C65.6797 148.019 72.4417 152.288 73.7521 154.725C75.0625 157.162 74.9077 159.101 74.2691 159.976C73.6305 160.851 71.2208 157.728 71.3854 155.591C71.55 153.454 68.9615 150.757 66.1386 149.198C63.3148 147.64 62.3873 147.11 62.3873 147.11C62.3873 147.11 53.1799 145.299 46.7703 148.417C45.6683 148.953 46.858 153.902 46.6719 154.045C46.6719 154.045 54.6262 157.109 57.6145 156.912C60.6029 156.716 61.6932 157.601 61.1682 158.579C60.6431 159.558 55.8945 159.195 53.7291 158.374C51.5645 157.552 48.1952 156.988 46.9268 156.146C45.6576 155.306 47.5163 159.904 49.8892 161.332C52.2622 162.759 63.0206 164.351 67.6744 161.992C70.2199 160.701 70.8085 163.695 68.0429 164.197C68.0429 164.197 55.7523 165.432 52.2729 163.612C48.7944 161.792 56.0385 168.082 58.7764 169.516C59.1557 169.715 59.5895 169.862 60.0582 169.971C70.3657 167.088 79.7476 161.519 80.3737 151.805ZM66.8837 156.283C65.3685 156.014 63.635 153.951 63.3014 152.771C63.0894 152.017 63.7773 152.262 63.7773 152.262C63.7773 152.262 65.2218 152.867 66.9194 154.341C68.5545 155.762 66.8837 156.283 66.8837 156.283Z" fill="#507153"/>
<path d="M71.8505 160.978C68.1403 159.098 62.2343 157.184 62.2343 157.184C62.2343 157.184 69.829 160.285 72.9346 161.961C73.3916 162.208 73.9578 162.516 74.5705 162.852C74.676 162.76 74.7771 162.666 74.8809 162.573C73.5625 161.872 72.3809 161.246 71.8505 160.978Z" fill="#283C35"/>
<path d="M80.3737 165.518C80.3737 165.518 77.38 163.906 74.88 162.573C74.7772 162.666 74.6752 162.76 74.5696 162.852C77.0973 164.234 80.439 166.084 80.439 166.084L80.3737 165.518Z" fill="#21302A"/>
<path d="M103.615 233.427L101.826 233.455L102.157 248.254C102.754 248.271 103.35 248.286 103.948 248.299L103.615 233.427Z" fill="#774A3C"/>
<path d="M109.848 248.342L110.624 233.474L108.837 233.408L108.058 248.348C108.654 248.349 109.252 248.346 109.848 248.342Z" fill="#774A3C"/>
<path d="M108.058 248.348L105.182 303.499L103.949 248.299C103.351 248.286 102.754 248.271 102.158 248.253L103.93 327.538L105.718 327.557L109.848 248.342C109.252 248.346 108.654 248.348 108.058 248.348Z" fill="#B27454"/>
<path d="M119.639 233.42L117.85 233.462L118.352 248.068C118.948 248.033 119.543 247.996 120.138 247.955L119.639 233.42Z" fill="#774A3C"/>
<path d="M125.345 229.056L123.556 229.033L123.197 247.708C123.796 247.653 124.393 247.587 124.989 247.523L125.345 229.056Z" fill="#774A3C"/>
<path d="M123.197 247.707L122.096 304.967L120.139 247.955C119.544 247.997 118.949 248.033 118.353 248.068L121.454 338.39L123.243 338.381L124.99 247.522C124.392 247.586 123.795 247.652 123.197 247.707Z" fill="#B27454"/>
<path d="M79.0821 231.118L77.2941 231.075L76.7816 246.428C77.3737 246.489 77.9676 246.549 78.5651 246.608L79.0821 231.118Z" fill="#774A3C"/>
<path d="M81.1312 233.15L80.1599 246.766C80.7502 246.823 81.345 246.878 81.9389 246.934L82.9166 233.239L81.1312 233.15Z" fill="#774A3C"/>
<path d="M77.1528 288.878L78.5642 246.608C77.9676 246.549 77.3728 246.489 76.7807 246.428L73.7888 336.003L75.5759 336.069L81.9389 246.934C81.3441 246.879 80.7502 246.823 80.1599 246.766L77.1528 288.878Z" fill="#B27454"/>
<path d="M124.586 227.46L123.033 226.718C123.153 226.543 123.333 226.318 123.542 226.058C124.132 225.328 125.227 223.969 125.002 223.21C124.963 223.078 124.862 222.882 124.44 222.694C124.277 222.62 124.147 222.616 123.972 222.676C122.817 223.074 121.427 225.624 120.81 227.308L119.099 226.87C119.388 226.081 120.947 222.102 123.289 221.293C123.957 221.062 124.647 221.09 125.283 221.373C126.252 221.806 126.609 222.415 126.739 222.849C127.157 224.254 125.874 225.843 125.025 226.895C124.845 227.118 124.689 227.31 124.586 227.46Z" fill="#845340"/>
<path d="M80.1527 227.745C78.9873 225.457 77.4676 223.324 76.6501 222.769C76.8013 223.46 77.5428 224.965 78.9783 226.582L77.5419 227.473C77.5052 227.432 73.9077 223.342 75.0786 221.712C75.227 221.505 75.6778 221.041 76.6412 221.158C78.6689 221.413 80.9246 225.44 81.7994 227.159L80.1527 227.745Z" fill="#845340"/>
<path d="M126.553 230.071C126.553 231.932 124.989 233.408 120.329 233.441C120.329 233.441 109.848 234.379 101.332 234.379C92.3583 234.379 82.3092 233.441 82.3092 233.441C77.9318 233.427 76.0857 231.932 76.0857 230.071C76.0857 228.209 76.0857 226.699 82.3092 226.699H120.329C126.553 226.699 126.553 228.209 126.553 230.071Z" fill="#7A3D3A"/>
<path d="M101.079 230.071C114.883 230.071 126.074 229.081 126.074 227.861C126.074 226.641 114.883 225.651 101.079 225.651C87.2752 225.651 76.0848 226.641 76.0848 227.861C76.0848 229.081 87.2752 230.071 101.079 230.071Z" fill="#E5E5E5"/>
<path d="M119.085 216.217L123.774 188.5H101.332H78.8907L83.2162 214.072C94.8941 216.939 107.16 217.595 119.085 216.217Z" fill="#BD5B57"/>
<path d="M83.2162 214.072L85.5454 227.839C85.5454 227.839 94.6758 228.987 101.331 228.659C107.986 228.987 117.118 227.839 117.118 227.839L119.084 216.217C107.161 217.595 94.8941 216.939 83.2162 214.072Z" fill="#924340"/>
<path d="M99.9208 196.561L44.5404 218.326L50.5117 219.924L97.3001 200.551L99.9208 196.561Z" fill="#293F3A"/>
<path d="M89.1849 206.888C89.1849 206.888 90.0918 206.094 92.4389 204.412C92.0614 203.408 91.5865 202.41 91.0328 201.423C90.5722 204.474 89.1849 206.888 89.1849 206.888Z" fill="#223428"/>
<path d="M77.2324 168.377C70.4471 170.025 67.7039 170.362 67.7039 170.362C67.7039 170.362 73.7923 171.217 77.7485 174.436C77.7816 172.372 77.6993 170.318 77.2324 168.377Z" fill="#223428"/>
<path d="M98.8315 186.935C95.3655 182.523 87.5373 184.749 87.5373 184.749L79.4184 188.252C79.7002 188.654 80.0195 189.037 80.3889 189.398C83.0856 191.653 85.7779 194.246 88.014 197.021C86.6482 194.2 87.0167 192.734 87.0167 192.734C89.3164 192.986 89.9004 193.919 90.7609 196.661C91.2645 198.264 91.2591 199.92 91.0319 201.423C91.5865 202.41 92.0605 203.408 92.438 204.412C93.7582 203.465 95.5301 202.241 97.8646 200.71C104.351 196.457 102.298 191.347 98.8315 186.935Z" fill="#1A2824"/>
<path d="M79.3683 188.177L88.361 184.274C88.361 184.274 95.0551 180.216 92.751 175.301C90.4469 170.386 86.6446 166.033 78.7475 168.005C78.2207 168.136 77.718 168.26 77.2332 168.378C77.6992 170.318 77.7824 172.373 77.7493 174.437C78.0445 174.677 78.3289 174.927 78.5972 175.193C80.7752 177.363 81.3495 178.302 80.2663 180.016C80.2663 180.016 79.1348 179.606 77.6286 178.006C77.4846 181.813 77.4855 185.433 79.3683 188.177Z" fill="#1A2824"/>
<path d="M79.4184 188.252L53.4563 199.455C53.4625 199.435 53.4661 199.42 53.4661 199.42L79.3683 188.177C77.4855 185.433 77.4846 181.813 77.6277 178.006C77.3084 177.666 76.973 177.276 76.6268 176.822C74.6492 174.224 68.6072 170.977 66.4713 171.341C64.3354 171.705 58.3623 174.585 57.3784 175.453C56.3945 176.32 68.44 177.636 70.9122 179.906C73.3854 182.176 76.0607 184.124 74.0938 185.225C72.1278 186.325 68.6314 183.655 67.5974 182.939C66.5643 182.222 57.9974 179.442 55.5949 180.539C53.1915 181.636 50.289 186.915 50.289 186.915C50.289 186.915 65.1654 185.916 65.6198 188.301C66.0751 190.685 61.6592 190.89 59.6288 190.618C57.5984 190.346 54.1611 189.542 53.4741 195.756C53.2291 197.983 53.1575 199.081 53.1682 199.578L52.5958 199.823C52.5958 199.823 49.713 198.812 56.1772 201.931C62.6395 205.052 63.8399 202.242 64.7477 200.698C65.6556 199.156 68.4042 196.258 70.4695 197.947C72.5356 199.635 62.966 209.214 62.966 209.214C62.966 209.214 69.7969 210.28 72.2557 209.274C74.7145 208.267 76.9488 200.813 76.846 199.694C76.7431 198.573 76.1564 194.645 78.3665 193.938C80.5767 193.231 80.9336 196.182 81.7198 199.183C82.5069 202.181 76.8361 211.165 78.2511 210.995C79.6662 210.823 85.9264 208.41 87.5158 207.163C89.1061 205.913 89.4263 199.914 88.0328 197.063C88.0256 197.047 88.0212 197.035 88.014 197.02C85.7779 194.244 83.0847 191.651 80.3889 189.396C80.0195 189.037 79.7001 188.654 79.4184 188.252Z" fill="#223428"/>
<path d="M139.385 193.827C140.975 192.578 141.295 186.579 139.902 183.729C138.509 180.878 138.886 179.398 138.886 179.398C141.185 179.65 141.769 180.583 142.63 183.326C144.155 188.182 141.053 193.551 141.053 193.551C141.053 193.551 143.248 191.626 149.733 187.373C156.219 183.121 154.166 178.01 150.699 173.598C147.233 169.187 139.405 171.413 139.405 171.413L105.324 186.119C105.33 186.098 105.334 186.084 105.334 186.084L140.23 170.938C140.23 170.938 146.924 166.88 144.62 161.964C142.316 157.049 138.513 152.697 130.616 154.668C122.718 156.64 119.573 157.027 119.573 157.027C119.573 157.027 126.606 158.01 130.465 161.857C132.643 164.027 133.217 164.965 132.134 166.68C132.134 166.68 130.473 166.083 128.496 163.485C126.518 160.887 120.476 157.641 118.34 158.004C116.204 158.369 110.231 161.249 109.247 162.116C108.263 162.983 120.309 164.3 122.781 166.57C125.254 168.839 127.929 170.788 125.963 171.888C123.997 172.989 120.5 170.319 119.466 169.602C118.433 168.886 109.866 166.105 107.464 167.203C105.06 168.299 102.158 173.579 102.158 173.579C102.158 173.579 117.034 172.58 117.489 174.964C117.944 177.349 113.528 177.553 111.498 177.282C109.467 177.009 106.03 176.206 105.343 182.42C105.098 184.647 105.026 185.745 105.037 186.241L104.465 186.487C104.465 186.487 101.582 185.475 108.046 188.595C114.508 191.715 115.709 188.906 116.617 187.362C117.524 185.819 120.273 182.922 122.338 184.611C124.404 186.299 114.835 195.877 114.835 195.877C114.835 195.877 121.666 196.945 124.125 195.937C126.583 194.93 128.818 187.477 128.715 186.359C128.612 185.238 128.025 181.31 130.235 180.603C132.446 179.896 132.802 182.847 133.589 185.848C134.376 188.845 128.705 197.83 130.12 197.661C131.535 197.49 137.795 195.075 139.385 193.827Z" fill="#1F302C"/>
<path d="M122.985 181.839C124.575 180.589 124.895 174.59 123.502 171.739C122.109 168.888 122.486 167.409 122.486 167.409C124.785 167.66 125.37 168.593 126.23 171.336C127.755 176.192 124.653 181.563 124.653 181.563C124.653 181.563 126.848 179.637 133.334 175.384C139.819 171.131 137.767 166.02 134.3 161.609C130.834 157.197 123.006 159.423 123.006 159.423L88.9245 174.129C88.9308 174.109 88.9343 174.094 88.9343 174.094L123.83 158.948C123.83 158.948 130.524 154.89 128.22 149.975C125.916 145.06 122.114 140.707 114.217 142.679C106.319 144.651 103.173 145.038 103.173 145.038C103.173 145.038 110.206 146.021 114.066 149.868C116.244 152.038 116.818 152.976 115.735 154.691C115.735 154.691 114.074 154.094 112.096 151.496C110.118 148.898 104.076 145.652 101.94 146.015C99.8045 146.38 93.8314 149.259 92.8475 150.127C91.8637 150.994 103.909 152.311 106.381 154.581C108.855 156.85 111.53 158.799 109.563 159.899C107.597 161 104.101 158.33 103.067 157.613C102.033 156.897 93.4665 154.116 91.064 155.214C88.6607 156.31 85.7582 161.59 85.7582 161.59C85.7582 161.59 100.635 160.59 101.089 162.975C101.544 165.36 97.1284 165.564 95.098 165.292C93.0676 165.02 89.6302 164.217 88.9433 170.431C88.6982 172.657 88.6267 173.755 88.6374 174.252L88.0649 174.498C88.0649 174.498 85.1822 173.486 91.6463 176.605C98.1087 179.726 99.309 176.917 100.217 175.373C101.125 173.83 103.873 170.932 105.939 172.621C108.005 174.309 98.4351 183.888 98.4351 183.888C98.4351 183.888 105.266 184.955 107.725 183.948C110.184 182.941 112.418 175.487 112.315 174.368C112.212 173.248 111.626 169.319 113.836 168.612C116.046 167.905 116.403 170.856 117.189 173.857C117.976 176.855 112.305 185.839 113.72 185.669C115.135 185.499 121.396 183.086 122.985 181.839Z" fill="#0B210F"/>
<path d="M65.1511 237.304C66.0769 238.502 75.2556 247.656 76.0973 248.219C76.939 248.782 78.4551 242.375 78.4551 239.698C78.4551 237.022 77.2771 234.628 74.7503 233.15C72.6707 231.932 65.059 227.328 62.1977 225.739C61.5429 227.749 60.9007 229.745 60.1816 231.695C62.3962 233.81 64.5867 236.575 65.1511 237.304Z" fill="#293F3A"/>
<path d="M18.4736 222.928C14.3476 223.774 9.15709 226.179 8.31453 228.854C7.47285 231.53 7.72509 236.037 6.96749 237.516C6.209 238.995 7.80917 241.881 8.65173 242.656C9.49341 243.43 8.39861 239.769 9.57838 238.572C10.3601 237.778 16.9128 232.673 23.6489 229.35C24.2303 226.687 25.3975 224.06 27.0549 221.519C23.5872 222.041 20.1579 222.583 18.4736 222.928Z" fill="#293F3A"/>
<path d="M55.4849 244.98C56.3936 247.304 61.7835 262.654 62.6243 263.289C63.466 263.923 70.2029 255.755 70.2029 255.755C70.2029 255.755 71.6341 254.487 69.3604 250.332C67.5098 246.95 62.3122 238.969 58.899 234.874C57.7344 237.504 56.314 239.998 54.3918 242.259C54.8731 243.376 55.2425 244.361 55.4849 244.98Z" fill="#293F3A"/>
<path d="M15.3037 250.543C13.2331 252.4 10.42 255.613 9.57836 258.711C8.7358 261.81 14.293 263.217 14.293 263.217C14.293 263.217 16.538 257.293 21.6176 252.513C25.1327 249.209 26.1497 248.307 30.0933 247.537C28.4807 245.98 27.1694 244.39 26.1462 242.78C22.9941 244.743 17.2661 248.784 15.3037 250.543Z" fill="#293F3A"/>
<path d="M68.7611 211.091C67.8774 212.346 67.1108 213.64 66.4248 214.957C67.9382 214.724 69.7655 214.778 70.8764 215.335C73.4023 216.602 75.6447 218.644 75.6447 218.644C75.6447 218.644 75.5463 213.006 69.9471 210.098C69.3666 210.438 68.9391 210.794 68.7611 211.091Z" fill="#293F3A"/>
<path d="M80.3916 224.419C79.718 223.151 77.9497 220.124 76.5177 219.419C75.1814 218.761 69.8872 219.635 65.2853 217.323C64.4078 219.3 63.6753 221.315 62.9928 223.334C63.0393 223.344 63.0823 223.351 63.1297 223.362C67.3398 224.277 80.1384 231.248 80.3907 231.53C80.6438 231.812 81.066 225.687 80.3916 224.419Z" fill="#293F3A"/>
<path d="M43.0413 249.57C43.959 251.263 44.7086 253.094 44.8579 254.064C45.1951 256.248 46.5422 271.457 46.2891 272.091C46.0368 272.725 53.8382 268.712 55.1163 266.458C56.3936 264.205 54.0358 256.107 52.8579 253.361C52.3552 252.191 51.0582 249.41 49.6638 246.533C48.6665 247.226 47.5905 247.884 46.4009 248.492C45.3096 248.948 44.1826 249.305 43.0413 249.57Z" fill="#293F3A"/>
<path d="M30.3 247.743C30.2687 247.713 30.2419 247.683 30.2106 247.654C30.2124 248.124 30.1292 249.7 28.944 250.542C27.1203 251.839 19.5139 258.288 17.1553 261.034C14.7975 263.78 16.0613 265.119 16.0613 265.119C16.0613 265.119 19.8493 266.174 20.776 268.006C21.7026 269.837 21.8708 270.471 21.8708 270.471C21.8708 270.471 23.555 269.132 25.4915 270.188C27.4279 271.244 27.4279 271.244 27.4279 271.244C27.4279 271.244 31.2168 268.217 31.3859 260.754C31.554 253.289 32.7329 253.923 32.7329 253.923C32.7329 253.923 36.4377 254.344 36.2695 259.978C36.1014 265.611 35.0066 271.174 34.249 272.231C33.4914 273.287 39.5539 272.723 40.901 269.555C42.248 266.387 41.4904 258.077 40.2274 253.57C39.8571 252.247 39.5253 251.082 39.2758 250.074C36.0325 250.19 32.8706 249.463 30.3 247.743Z" fill="#293F3A"/>
<path d="M64.3094 216.778C63.0804 216.012 64.4973 215.254 66.4257 214.957C67.1117 213.64 67.8783 212.346 68.762 211.09C68.94 210.794 69.3675 210.437 69.948 210.098C68.9534 209.582 67.7879 209.149 66.4149 208.852C57.3158 206.882 51.9741 215.392 51.2595 216.959C50.6065 218.387 49.1459 216.517 49.1459 216.517C49.1459 216.517 49.0225 211.898 48.7067 210.675C48.2336 208.846 45.6271 206.178 41.7909 204.854C41.4787 207.085 40.6326 209.014 39.2453 209.594C38.5074 210.103 37.7945 210.624 37.0968 211.153C41.5404 213.147 39.1523 213.112 37.5342 212.693C37.5342 212.693 36.6398 212.659 35.2641 212.595C32.9681 214.489 30.9404 216.496 29.2275 218.579C32.9037 218.4 35.9528 218.216 37.1129 218.081C39.1719 217.841 39.8911 219.771 37.197 220.053C37.197 220.053 32.0853 220.765 27.0567 221.52C25.3984 224.06 24.232 226.687 23.6507 229.35C27.0719 227.662 30.5406 226.432 33.3241 226.461C36.0736 226.49 34.35 228.976 31.977 229.771C31.6828 229.869 27.0728 231.171 23.2294 232.787C23.1882 234.654 23.4619 236.526 24.0648 238.386C24.0701 238.38 24.0764 238.375 24.0818 238.37C25.8707 236.755 28.6425 235.216 31.4216 235.498C34.2006 235.78 29.9538 240.674 27.5692 241.942C27.207 242.135 26.7141 242.427 26.1488 242.779C27.1721 244.39 28.4833 245.98 30.096 247.537C30.1345 247.529 30.1703 247.521 30.2087 247.514C30.2087 247.514 30.2114 247.568 30.2123 247.654C30.2436 247.683 30.2695 247.713 30.3017 247.743C32.8724 249.463 36.0342 250.19 39.2775 250.074C38.6782 247.651 38.5691 246.173 39.6397 245.824C40.4814 245.551 41.8946 247.452 43.0431 249.569C44.1844 249.304 45.3114 248.947 46.4017 248.491C47.5922 247.883 48.6683 247.226 49.6647 246.532C47.7854 242.655 45.7282 238.604 45.1969 238.079C44.2703 237.163 44.018 233.854 47.9751 234.558C50.8775 235.074 53.0698 239.185 54.3936 242.258C56.3158 239.997 57.7361 237.503 58.9007 234.874C58.1208 233.938 57.4329 233.205 56.9007 232.776C54.0376 230.473 53.7013 228.854 56.3113 229.136C57.331 229.246 58.7621 230.338 60.1824 231.695C60.9016 229.746 61.5438 227.749 62.1985 225.739C61.584 225.398 61.1851 225.193 61.1109 225.193C56.2925 225.193 54.8104 221.593 62.9946 223.335C63.677 221.316 64.4096 219.3 65.287 217.324C64.9561 217.158 64.6296 216.978 64.3094 216.778ZM36.6067 226.108C35.0065 225.967 33.9117 224.841 35.68 223.996C37.4484 223.15 40.985 223.996 40.985 223.996C42.5011 226.389 38.2068 226.25 36.6067 226.108ZM49.4053 226.672C47.9733 226.319 46.7103 223.879 49.4053 223.621C49.4053 223.621 53.195 224.63 53.1942 226.953C53.1942 227.836 50.8364 227.023 49.4053 226.672Z" fill="#1A2824"/>
<path d="M41.7901 204.854C40.5602 204.429 39.2069 204.139 37.7543 204.062C32.0182 203.759 30.2786 205.165 27.7661 207.874C27.2661 208.407 25.9655 210.342 25.4924 211.039C23.6722 213.714 29.3653 207.94 35.681 210.545C36.2177 210.767 36.6837 210.967 37.096 211.153C37.7946 210.624 38.5074 210.103 39.2445 209.594C40.6309 209.015 41.4779 207.086 41.7901 204.854Z" fill="#293F3A"/>
<path d="M23.2285 232.787C21.5711 233.484 20.0568 234.238 19.0926 234.981C15.8932 237.446 13.3673 241.248 11.9362 243.713C10.5042 246.178 8.73584 246.882 7.72512 247.937C6.71529 248.994 7.64104 251.458 7.97825 253.007C8.31456 254.557 8.56769 255.402 8.56769 255.402C8.56769 255.402 15.0515 247.937 17.6615 245.05C20.2634 242.173 22.4253 239.865 24.0639 238.385C23.4611 236.525 23.1874 234.653 23.2285 232.787Z" fill="#293F3A"/>
<path d="M35.2632 212.595C31.147 212.403 22.7124 211.951 20.9459 211.379C18.5881 210.616 16.8198 210.476 13.5363 213.433C10.2528 216.39 11.4656 218.458 9.19196 219.021C7.58017 219.42 20.2759 219.014 29.2266 218.579C30.9386 216.496 32.9672 214.489 35.2632 212.595Z" fill="#293F3A"/>
<path d="M49.145 216.517L50.6208 217.491C50.6208 217.491 46.9653 221.395 43.1639 229.329C41.7596 232.261 35.1014 246.399 34.0584 249.14C33.5468 250.484 38.1711 237.131 41.0771 231.698C43.9832 226.264 49.145 216.517 49.145 216.517Z" fill="#638170"/>
<path d="M75.0025 105.772C74.2449 105.209 73.4757 104.692 72.7244 104.274C70.8791 104.418 69.516 104.871 69.516 104.871C69.516 104.871 72.3156 106.267 75.0025 105.772Z" fill="#0F2E17"/>
<path d="M110.966 118.82C105.878 113.15 101.672 114.301 98.3931 115.653C95.7796 116.731 92.5426 119.251 90.7519 119.186C90.2966 119.17 89.9335 118.986 89.6991 118.568C89.6991 118.568 89.9111 117.465 91.5962 116.768C93.2805 116.07 97.3171 110.348 94.3485 106.141C91.3798 101.934 88.802 102.553 86.4103 102.383C86.3038 102.376 86.1956 102.356 86.0883 102.345C86.7797 103.795 85.1106 106.037 85.7555 107.116C89.3333 113.1 83.0722 119.832 85.7555 127.313C85.8146 127.707 85.9022 128.096 86.0113 128.479C86.5435 128.156 87.361 128.292 87.8789 129.153C88.5954 130.347 90.3082 133.333 91.0014 135.664C91.0399 135.622 91.0846 135.583 91.1222 135.541C91.0846 135.583 91.0399 135.622 91.0014 135.664C91.2143 136.381 91.3351 137.039 91.2948 137.56C91.1222 139.823 92.6642 147.473 87.133 151.378C87.133 151.378 93.3261 149.41 94.5193 149.757C95.7134 150.103 99.2554 148.607 100.055 147.135C100.856 145.662 100.897 139.528 97.9244 136.024C95.6785 133.376 93.8878 130.417 94.0515 128.536C94.2161 126.654 98.1105 129.219 99.0872 130.661C100.064 132.104 104.434 135.53 104.746 143.619C104.796 144.889 111.365 138.879 112.058 137.248C112.058 137.248 113.686 134.873 111.15 132.365C107.846 129.1 101.266 126.621 100.033 124.8C98.7992 122.979 100.831 122.617 102.534 123.715C104.237 124.814 110.524 125.8 112.961 132.208C113.576 133.823 116.334 124.798 110.966 118.82Z" fill="#08190A"/>
<path d="M66.6645 111.636C64.6627 110.98 59.1136 108.096 55.1628 109.165C51.2121 110.235 49.0359 113.571 48.8275 113.969C48.6191 114.37 54.7532 113.869 62.2209 116.047C64.4016 116.682 66.3192 117.181 67.9793 117.615C69.2101 116.408 70.5178 115.25 71.8263 114.102C69.6609 113.058 67.5008 111.909 66.6645 111.636Z" fill="#0F2E17"/>
<path d="M56.3668 117.315C54.9697 117.375 48.0887 117.126 46.6603 118.204C45.2327 119.281 44.2328 125.769 44.2328 125.769C44.2328 125.769 53.6289 122.514 57.17 122.749C59.1655 122.881 61.3336 123.15 63.28 123.498C64.0465 122.121 64.991 120.845 66.0518 119.636C62.1181 118.543 57.2442 117.277 56.3668 117.315Z" fill="#0F2E17"/>
<path d="M77.2816 146.603C75.1206 149.431 72.4677 152.593 72.4677 152.593C72.4677 152.593 83.1903 153.027 84.2923 152.706C85.3924 152.385 86.8003 150.215 87.6106 148.227C88.3459 146.424 88.3262 141.768 87.5865 138.121C85.252 139.319 82.5329 140.098 80.3057 140.6C79.6939 142.749 78.6251 144.845 77.2816 146.603Z" fill="#0F2E17"/>
<path d="M75.0025 105.772C72.3165 106.267 69.516 104.871 69.516 104.871C69.516 104.871 70.8782 104.418 72.7244 104.274C71.8639 103.794 71.0267 103.443 70.2611 103.316C66.3452 102.665 60.7209 103.525 57.8864 107.875C57.4374 108.563 65.8139 108.43 67.9427 109.627C67.9427 109.627 71.2539 110.718 73.9632 112.213C75.4059 110.915 76.7869 109.596 77.9927 108.198C77.0723 107.409 76.049 106.549 75.0025 105.772Z" fill="#0F2E17"/>
<path d="M62.2424 125.796C60.3793 125.36 58.4079 125 56.7076 125.073C52.5153 125.255 45.8061 125.236 43.3061 126.877C41.4805 128.076 43.29 133.935 43.29 133.935C43.29 133.935 53.9589 130.749 57.3042 131.088C60.6494 131.426 59.6199 132.916 57.5367 133.202C55.4527 133.487 43.383 136.195 43.383 136.195C43.383 136.195 46.9447 140.924 44.3374 142.56C41.7301 144.196 48.7685 143.37 49.8445 146.267C50.5726 148.228 59.3828 139.644 60.034 138.835C60.034 138.835 62.3059 137.058 62.2299 139.6C62.1538 142.141 54.6351 148.208 51.4903 148.696C48.3436 149.184 56.8373 150.574 57.5358 150.545C58.2344 150.514 64.6386 147.581 66.4373 141.918C66.7933 140.795 67.1073 139.86 67.3899 139.079C62.9052 136.187 60.5832 130.93 62.2424 125.796Z" fill="#0F2E17"/>
<path d="M69.719 140.282C69.3666 140.972 68.8979 141.727 68.2959 142.54C65.6672 146.091 59.1503 150.981 59.1503 150.981L66.8112 153.267C66.8112 153.267 70.6018 151.133 72.3648 149.434C73.9927 147.864 75.4935 144.72 75.9828 141.306C73.7073 141.41 71.5884 141.033 69.719 140.282Z" fill="#0F2E17"/>
<path d="M85.5981 130.034C85.3369 129.305 85.5802 128.742 86.0113 128.479C85.9022 128.096 85.8145 127.707 85.7555 127.313C83.0722 119.832 89.3333 113.1 85.7555 107.116C85.1106 106.037 86.7796 103.795 86.0882 102.345C84.6258 102.19 83.1089 101.706 81.7842 101.37C81.4032 102.897 80.7556 104.296 79.9282 105.609C81.6554 106.478 83.0105 108.119 83.0301 108.897C83.0632 110.185 82.8119 111.406 81.3781 110.882C80.8074 110.674 79.5481 109.535 77.9926 108.199C76.786 109.597 75.4059 110.916 73.9632 112.214C75.5919 113.112 77.0034 114.156 77.3486 115.197C77.8844 116.813 74.8505 115.559 71.8281 114.103C70.5196 115.251 69.2119 116.409 67.9811 117.615C72.0061 118.668 74.4828 119.333 75.2547 120.6C76.3469 122.389 72.753 121.685 71.0357 121.095C70.3961 120.876 68.3899 120.286 66.0545 119.637C64.9928 120.845 64.0491 122.122 63.2826 123.499C65.4955 123.895 67.4212 124.394 68.4695 124.917C70.4722 125.917 70.2718 126.87 68.5115 127.103C67.4659 127.241 64.9731 126.436 62.2451 125.797C60.5859 130.931 62.9078 136.189 67.3917 139.08C68.5366 135.919 69.1707 135.369 69.9972 136.022C70.7772 136.639 70.8156 138.145 69.7217 140.284C71.5911 141.034 73.7091 141.412 75.9855 141.307C76.1715 140.007 76.2163 138.67 76.058 137.362C75.4846 132.622 75.8961 130.222 77.8352 130.606C79.7735 130.991 80.854 133.781 80.8727 136.685C80.8817 137.97 80.6778 139.296 80.3066 140.602C82.5337 140.099 85.2528 139.321 87.5873 138.123C87.5113 137.748 87.4299 137.38 87.3387 137.031C86.3593 133.282 86.1079 131.457 85.5981 130.034Z" fill="#091E0C"/>
<path d="M76.3182 105.359C77.5043 104.797 78.795 105.039 79.9273 105.608C80.7547 104.295 81.4023 102.897 81.7833 101.369C81.0239 101.177 80.3262 101.032 79.7404 101.03C78.0588 101.026 74.888 104.131 72.9346 104.254C72.8621 104.259 72.795 104.267 72.7244 104.273C73.4757 104.691 74.2449 105.208 75.0025 105.771C75.4488 105.69 75.8916 105.561 76.3182 105.359Z" fill="#0F2E17"/>
<path d="M43.7801 143.247C43.171 143.659 58.7594 136.572 63.1368 134.581C63.0304 134.389 62.9257 134.196 62.83 133.999C58.5975 136.011 46.3373 141.517 43.7801 143.247Z" fill="#507153"/>
<path d="M81.4005 124.838C82.7108 124.095 83.9523 123.368 85.0784 122.697C85.091 122.322 85.1178 121.948 85.1553 121.577C83.3897 122.707 81.2368 124.046 78.9067 125.404C72.8862 128.912 65.7414 132.529 63.9436 133.456C63.6958 133.583 63.3121 133.769 62.8309 133.999C62.9266 134.196 63.0312 134.389 63.1377 134.581C63.4892 134.421 63.7772 134.29 63.9695 134.203C65.4605 133.523 74.329 128.851 81.4005 124.838Z" fill="#415942"/>
<path d="M89.6991 118.568C89.6991 118.568 87.9004 119.818 85.1545 121.577C85.1169 121.949 85.0901 122.322 85.0775 122.697C88.4326 120.696 90.7519 119.186 90.7519 119.186L89.6991 118.568Z" fill="#445E45"/>
<path d="M180.284 211.006C176.544 208.713 180.088 202.666 180.088 202.666L176.419 200.598C175.29 200.894 163.242 199.825 164.355 198.382C167.695 194.05 180.17 202.604 179.996 200.644C179.822 198.682 180.304 194.019 178.578 193.089C176.852 192.157 164.46 192.398 161.988 193.254C161.27 193.502 160.367 193.763 159.41 193.974C159.313 194.197 159.218 194.419 159.099 194.634C156.217 199.722 150.808 202.691 144.36 203.972C143.991 206.806 144.09 210.558 144.534 215.972C145.087 222.714 148.689 224.303 149.007 224.187C149.327 224.073 157.322 225.506 156.855 224.375C156.389 223.247 156.342 219.468 153.921 215.119C151.502 210.771 150.823 204.88 150.823 204.88C150.449 203.56 153.777 200.469 154.581 203.436C157.608 214.604 165.688 221.065 165.688 221.065C165.688 221.065 166.122 222.58 171.598 216.668C178.234 209.509 182.822 212.562 180.284 211.006Z" fill="#293F3A"/>
<path d="M108.685 203.147C108.904 203.352 114.326 212.86 114.401 211.562C114.694 206.433 116.529 203.902 118.319 201.68C115.186 200.614 112.219 199.299 109.574 197.766C107.767 199.835 108.685 203.147 108.685 203.147Z" fill="#293F3A"/>
<path d="M117.596 213.735C120.226 217.439 129.891 221.561 129.891 221.561C129.891 221.561 128.447 218.822 128.695 216.547C128.944 214.271 128.79 209.467 128.937 208.497C129.022 207.926 128.919 206.261 129.39 204.262C127.077 203.957 124.769 203.508 122.509 202.927C119.876 206.674 116.002 211.491 117.596 213.735Z" fill="#293F3A"/>
<path d="M155.881 172.375C159.181 171.028 162.161 170.373 162.161 170.373C162.161 170.373 164.488 168.524 155.831 167.013C155.493 168.709 155.565 170.513 155.881 172.375Z" fill="#293F3A"/>
<path d="M132.764 204.605C131.84 207.769 130.693 212.052 130.7 213.335C130.709 215.417 132.656 220.981 133.733 221.163C134.81 221.346 144.42 224.16 144.42 224.16C144.42 224.16 141.788 217.262 141.213 215.476C140.829 214.287 139.883 208.828 140.034 204.581C137.676 204.774 135.234 204.776 132.764 204.605Z" fill="#293F3A"/>
<path d="M160.163 190.738C164.514 189.969 180.329 190.311 180.329 190.311C180.329 190.311 180.364 188.684 178.119 185.19C175.872 181.696 173.535 185.049 172.797 182.261C171.645 177.912 169.671 176.511 167.495 175.664C165.321 174.819 162.373 174.422 158.774 175.762C158.172 175.986 157.539 176.261 156.889 176.569C158.324 181.447 160.409 186.452 160.163 190.738ZM159.457 183.685C162.165 181.671 163.798 182.928 163.798 182.928C163.798 182.928 162.157 184.15 160.488 184.655C158.819 185.159 159.457 183.685 159.457 183.685Z" fill="#293F3A"/>
<path d="M159.1 194.634C159.219 194.419 159.314 194.197 159.411 193.974C157.078 194.493 154.43 194.72 153.393 193.745C151.933 192.372 156.029 191.661 159.824 190.804C159.927 190.781 160.043 190.759 160.163 190.738C160.408 186.452 158.324 181.447 156.889 176.569C152.537 178.633 147.418 182.299 145.554 183.795C143.41 185.512 143.036 184.929 143.036 184.929C142.56 183.93 143.402 182.648 148.957 176.67C150.672 174.826 153.369 173.4 155.881 172.375C155.565 170.511 155.493 168.708 155.831 167.012C155.387 166.934 154.924 166.858 154.42 166.782C144.098 165.237 140.379 173.907 139.559 175.625C138.74 177.342 136.714 178.479 135.709 177.259C134.705 176.038 137.513 171.49 135.679 169.902C133.844 168.316 124.419 170.654 124.229 175.592C124.04 180.53 127.793 183.642 129.964 183.747C132.136 183.854 131.901 186.121 131.901 186.121C131.901 186.121 130.6 187.838 129.109 186.894C125.779 184.787 123.121 184.78 118.888 186.33C114.655 187.881 110.012 191.768 108.789 192.736C107.567 193.706 106.766 196.824 108.252 195.964C109.739 195.103 111.801 194.185 114.966 192.322C118.132 190.459 121.38 189.641 122.274 190.206C123.168 190.771 119.964 192.814 118.798 193.161C117.161 193.646 111.864 195.489 109.776 197.536C109.702 197.61 109.64 197.688 109.573 197.765C112.219 199.298 115.185 200.613 118.318 201.679C118.68 201.229 119.041 200.791 119.385 200.349C121.437 197.715 124.712 195.402 126.647 195.562C128.582 195.722 125.863 197.867 123.337 201.714C123.084 202.101 122.801 202.509 122.507 202.927C124.768 203.507 127.075 203.957 129.388 204.261C129.718 202.863 130.326 201.303 131.485 199.834C134.302 196.262 134.067 200.741 133.894 200.993C133.827 201.09 133.338 202.63 132.761 204.604C135.23 204.776 137.673 204.774 140.03 204.579C140.105 202.448 140.455 200.621 141.293 199.793C143.801 197.312 145.471 199.021 144.716 202.043C144.567 202.638 144.45 203.278 144.359 203.972C150.809 202.691 156.218 199.722 159.1 194.634ZM134.77 195.179C134.404 193.729 136.676 192.409 136.676 192.409L137.068 192.776C138.427 194.884 135.136 196.629 134.77 195.179ZM150.871 186.397C150.816 184.962 155.843 184.297 155.843 184.297C157.532 184.639 157.801 185.376 155.545 186.365C152.793 187.571 150.927 187.832 150.871 186.397Z" fill="#1A2824"/>
<path d="M192.108 57.8853H186.779V63.4551H192.108V57.8853Z" fill="#5E615D"/>
<path d="M238.825 43.1157H235.561V48.6855H238.825V43.1157Z" fill="#5E615D"/>
<path d="M109.93 88.8024C109.915 88.8024 109.902 88.8002 109.888 88.8009C102.814 88.9064 102.057 91.5469 100.415 93.5538C98.7733 95.5608 95.742 97.1451 94.7322 98.6239C93.7223 100.103 95.7429 104.749 94.7322 106.545C94.6955 106.61 94.6669 106.673 94.632 106.738C95.6069 106.326 96.7178 105.958 97.8779 105.627C98.0398 105.185 98.1418 104.718 98.1418 104.222C98.1418 100.736 104.962 99.6801 106.604 100.42C108.245 101.159 109.635 102.11 108.119 103.06C107.159 103.663 102.192 104.393 97.877 105.628C96.8985 108.291 93.4683 109.926 93.4683 109.926C93.4683 109.926 93.7107 108.453 94.6311 106.739C93.5113 107.213 92.5712 107.742 91.9531 108.342C88.7957 111.405 86.523 116.873 90.3109 121.967C90.9111 122.774 95.742 115.313 98.521 114.151C98.521 114.151 107.11 108.342 111.151 109.187C115.193 110.032 102.31 115.102 100.289 116.475C98.2688 117.848 91.3225 121.017 90.3118 125.136C89.302 129.255 92.2063 133.164 92.5855 133.585C92.9639 134.008 95.9951 128.304 103.195 123.023C110.393 117.741 113.804 114.15 116.709 114.256C116.743 114.257 116.765 114.263 116.798 114.266C116.862 105.239 119.502 95.3775 109.93 88.8024Z" fill="#777E52"/>
<path d="M97.877 105.626C96.7169 105.957 95.6052 106.326 94.6311 106.738C93.7107 108.451 93.4683 109.925 93.4683 109.925C93.4683 109.925 96.8985 108.29 97.877 105.626Z" fill="#777E52"/>
<path d="M114.812 118.27C113.044 119.431 102.056 127.67 101.298 128.938C100.54 130.205 96.1204 136.12 96.6248 138.022C97.1302 139.923 104.708 144.676 104.708 144.676C104.708 144.676 106.215 134.454 108.623 131.473C111.525 127.882 115.682 123.961 118.096 122.812C118.108 122.807 118.117 122.802 118.13 122.797C117.333 120.848 116.973 118.77 116.85 116.62C116.227 117.244 115.441 117.857 114.812 118.27Z" fill="#777E52"/>
<path d="M119.639 125.462C117.439 127.397 113.053 130.299 111.277 133.269C109.003 137.071 104.975 142.973 105.551 146.156C105.972 148.48 114.434 150.381 114.434 150.381C114.434 150.381 116.788 139.079 119.21 136.332C121.633 133.585 122.896 135.381 122.012 137.388C121.128 139.395 117.339 151.648 117.339 151.648C117.339 151.648 125.422 151.331 125.928 154.605C126.433 157.88 129.592 151.185 133.885 151.965C136.79 152.494 131.233 139.607 130.601 138.551C130.601 138.551 129.717 135.488 132.875 137.072C136.032 138.656 139.19 148.902 137.927 151.965C136.664 155.029 143.484 148.374 143.863 147.74C144.242 147.107 144.368 139.713 138.306 134.748C132.243 129.783 131.36 128.516 133.002 128.094C134.643 127.671 137.474 129.317 140.2 133.481C143.106 137.917 145.379 146.578 145.379 146.578L152.831 141.191C152.831 141.191 152.405 136.578 151.316 134.009C149.927 130.734 144.622 125.876 138.307 123.552C137.403 123.219 136.58 122.899 135.823 122.587C131.897 127.367 123.272 129.568 119.639 125.462Z" fill="#777E52"/>
<path d="M164.943 108.235C163.566 106.651 155.861 102.954 149.673 103.482C144.996 103.881 140.2 103.693 137.927 102.425C135.653 101.158 141.21 99.2567 143.61 99.2567C146.01 99.2567 152.935 97.451 163.313 102.003C164.943 102.718 161.292 93.3414 159.65 91.7571C159.65 91.7571 157.63 88.9056 152.956 89.6447C146.869 90.6074 139.82 94.9264 136.789 94.9264C133.758 94.9264 134.515 92.9195 136.915 92.075C139.315 91.2297 144.31 86.2778 153.84 87.9556C156.24 88.3783 146.514 80.5622 135.778 81.7232C134.129 81.9012 132.722 82.1675 131.516 82.5018C129.235 91.3988 134.117 99.7047 136.546 108.313C139.769 108.503 145.383 109.002 147.651 110.242C150.399 111.744 160.959 114.951 162.578 122.156C162.578 122.156 163.793 115.523 164.943 114.679C166.092 113.833 166.32 109.819 164.943 108.235Z" fill="#777E52"/>
<path d="M137.753 117.897C138.612 118.171 139.482 118.509 140.326 118.903C144.62 120.91 148.41 124.396 150.682 127.987C152.956 131.579 155.356 135.804 155.356 135.804C155.356 135.804 162.302 126.614 162.554 125.452C162.807 124.291 160.913 121.756 158.892 119.854C156.87 117.953 149.925 114.784 144.619 113.411C141.223 112.532 138.999 111.861 137.286 111.387C137.709 113.527 137.913 115.693 137.753 117.897Z" fill="#777E52"/>
<path d="M131.517 82.5018C125.28 84.2305 124.498 87.815 124.286 90.9125C124.085 93.859 125.328 98.2154 124.178 99.7548C123.885 100.147 123.438 100.356 122.771 100.314C122.771 100.314 121.508 99.4684 121.634 97.5676C121.761 95.6699 116.98 88.7253 109.931 88.8024C119.503 95.3782 116.863 105.24 116.798 114.266C118.549 114.371 117.964 115.51 116.853 116.62C116.975 118.77 117.336 120.847 118.133 122.797C120.563 121.652 121.632 122.397 120.877 124.08C120.711 124.449 120.257 124.92 119.641 125.462C123.274 129.569 131.899 127.368 135.823 122.586C131.295 120.721 129.448 119.22 130.855 117.953C132.12 116.815 134.878 116.979 137.755 117.897C137.915 115.693 137.711 113.527 137.29 111.387C136.327 111.12 135.525 110.915 134.771 110.771C132.371 110.313 132.497 108.13 135.024 108.236C135.42 108.252 135.948 108.279 136.548 108.314C134.118 99.7047 129.235 91.3988 131.517 82.5018Z" fill="#6E724C"/>
<path d="M125.718 111.369C125.101 105.006 124.177 99.7549 124.177 99.7549L122.77 100.314C122.77 100.314 124.124 106.586 124.941 113.904C125.463 118.568 125.773 123.65 125.954 127.307C126.293 127.302 126.608 127.291 126.91 127.265C126.672 122.979 126.243 116.785 125.718 111.369Z" fill="#4B664C"/>
<path d="M125.955 127.307C126.06 129.45 126.123 131.106 126.158 131.895C126.285 134.773 125.732 151.846 126.461 155.506C126.629 156.351 127.05 135.307 127.112 132.318C127.125 131.677 127.051 129.806 126.91 127.265C126.608 127.291 126.293 127.303 125.955 127.307Z" fill="#507153"/>
<path d="M42.7078 168.516C42.7078 168.516 43.0584 168.468 43.7095 168.413C43.6764 168.203 43.6344 167.993 43.5843 167.782L42.7078 168.516Z" fill="#293F3A"/>
<path d="M84.5883 174.025C84.5883 174.025 63.2701 165.984 44.307 167.177L43.5834 167.782C43.6335 167.993 43.6764 168.203 43.7086 168.413C47.8114 168.069 64.3014 167.444 86.6536 176.643C87.8244 177.124 84.5883 174.025 84.5883 174.025Z" fill="#1F302C"/>
<path d="M3.6384 179.571C4.14376 178.471 6.29132 176.562 8.61777 174.996C8.33871 174.091 8.11688 172.907 8.07395 171.662C2.95326 175.668 3.02123 180.914 3.6384 179.571Z" fill="#293F3A"/>
<path d="M16.8457 167.964C16.5515 168.028 16.2536 168.093 15.9325 168.163C12.4755 168.914 9.93525 170.208 8.07391 171.663C8.11685 172.907 8.33867 174.091 8.61774 174.996C9.20986 174.598 9.81093 174.221 10.4022 173.886C11.5658 171.317 14.7089 169.18 16.8457 167.964Z" fill="#293F3A"/>
<path d="M16.8458 167.964C17.3681 167.666 17.8305 167.423 18.1883 167.243C18.8171 166.037 19.4727 164.826 20.0881 163.622C18.2635 163.76 16.0676 164.229 12.2268 164.96C8.83958 165.606 7.97376 168.783 8.07304 171.663C9.93438 170.208 12.4746 168.914 15.9316 168.163C16.2536 168.094 16.5515 168.029 16.8458 167.964Z" fill="#293F3A"/>
<path d="M9.95225 175.628C9.98624 175.031 10.1472 174.448 10.4013 173.886C9.81003 174.221 9.20897 174.598 8.61685 174.996C9.13831 176.685 9.85297 177.392 9.95225 175.628Z" fill="#293F3A"/>
<path d="M42.7077 186.197C45.9072 185.64 52.306 180.979 49.9492 179.571C48.7327 178.845 45.0557 176.133 42.4466 173.619C41.5226 175.222 40.2722 176.952 38.7892 178.59C39.6827 182.29 40.7883 186.531 42.7077 186.197Z" fill="#293F3A"/>
<path d="M30.7168 184.604C30.1292 190.527 28.8984 197.739 28.8984 197.739C28.8984 197.739 36.9815 194.641 37.1013 194.143C37.1845 193.8 36.6139 186.582 35.9198 181.357C34.3178 182.695 32.5603 183.834 30.7168 184.604Z" fill="#293F3A"/>
<path d="M34.9609 165.347C28.2249 166.896 30.0773 165.347 25.5308 164.22C23.2884 163.665 21.8636 163.487 20.0881 163.622C19.4727 164.826 18.8171 166.037 18.1883 167.243C18.6677 167.002 18.9629 166.871 18.9629 166.871C18.9629 166.871 27.7786 165.518 17.9423 167.72C17.1212 169.317 16.3681 170.905 15.8404 172.457C17.3431 172.706 18.2348 173.483 18.4575 173.42C18.606 173.377 17.0908 174.863 15.09 176.56C15.1168 178.881 16.0783 181.054 18.6239 182.975C18.7921 182.745 18.9611 182.556 19.1302 182.429C21.0514 180.981 21.157 181.611 21.6096 184.743C23.6695 185.656 25.7598 185.83 27.7964 185.473C27.9476 182.699 28.1283 180.02 28.0567 178.587C27.8886 175.206 29.5728 174.643 30.7508 177.319C31.1783 178.288 31.0513 181.239 30.7168 184.605C32.5603 183.835 34.3178 182.696 35.9198 181.358C35.6085 179.015 35.2731 177.074 34.96 176.333C33.9502 173.939 35.6336 172.249 37.1014 173.42C37.6881 173.889 38.1917 176.119 38.7883 178.59C40.2713 176.953 41.5217 175.222 42.4457 173.619C39.9976 171.259 38.4895 169.073 40.8544 168.869C41.7292 168.793 42.7337 169.014 43.7918 169.415C43.7703 167.944 43.273 166.473 42.5074 165.003C38.7078 164.809 34.9609 165.347 34.9609 165.347Z" fill="#1A2824"/>
<path d="M49.2756 166.896C47.824 165.624 45.1531 165.136 42.5083 165.002C43.2739 166.473 43.7712 167.943 43.7927 169.414C48.6433 171.25 54.6244 176.925 54.442 175.768C54.2183 174.361 52.8123 169.994 49.2756 166.896Z" fill="#293F3A"/>
<path d="M16.8457 167.964C14.7089 169.179 11.5658 171.316 10.4022 173.886C11.3565 173.346 12.2796 172.913 13.0685 172.67C14.1499 172.337 15.0729 172.329 15.8404 172.456C16.3681 170.904 17.1212 169.317 17.9423 167.72C17.6006 167.797 17.2339 167.878 16.8457 167.964Z" fill="#293F3A"/>
<path d="M21.6105 184.742C21.6731 185.178 21.7429 185.662 21.8252 186.197C22.4996 190.569 14.7528 197.598 17.7832 197.739C20.8153 197.88 29.0961 196.539 28.0451 194.41C27.4387 193.182 27.5907 189.24 27.7965 185.472C25.7598 185.829 23.6704 185.655 21.6105 184.742Z" fill="#293F3A"/>
<path d="M15.09 176.56C12.5435 178.721 9.209 181.224 7.51135 181.355C4.48007 181.589 -0.740801 184.924 0.943439 186.211C2.62768 187.5 -0.234546 194.5 2.96399 194.143C6.16431 193.787 10.0373 198.443 12.395 196.752C14.5703 195.193 16.6034 185.723 18.6239 182.974C16.0783 181.053 15.1177 178.881 15.09 176.56Z" fill="#293F3A"/>
<path d="M139.076 142.607C140.306 142.279 141.743 142.012 143.295 141.864C147.715 141.441 150.325 140.913 152.389 140.702C154.452 140.491 150.914 138.323 148.979 138.273C147.739 138.24 144.194 138.078 140.479 138.326C140.428 138.396 140.361 138.46 140.317 138.533C139.742 139.88 139.346 141.239 139.076 142.607Z" fill="#293F3A"/>
<path d="M121.322 134.704C120.947 134.268 120.534 133.835 120.056 133.413C115.382 129.294 105.152 133.308 105.025 135.843C104.899 138.378 111.467 140.49 111.719 142.181C111.972 143.871 109.194 144.188 106.92 143.237C104.646 142.286 93.5318 137.216 86.0802 145.139C78.6277 153.06 82.7117 153.166 82.7117 153.166C82.7117 153.166 92.4996 149.007 99.8046 150.138C102.554 150.564 104.686 150.915 106.365 151.224C111.787 146.05 119.812 142.133 121.322 134.704Z" fill="#293F3A"/>
<path d="M109.906 177.43C108.028 175.86 107.136 173.877 106.325 171.808C105.415 172.178 104.52 172.486 103.763 172.707C100.858 173.551 89.9961 181.263 89.3646 183.163C88.7323 185.064 93.4066 188.761 95.0479 190.557C96.6892 192.353 99.589 177.036 106.415 178.621C108.688 179.149 99.3171 187.766 98.0783 188.233L96.8154 192.353C96.8154 192.353 105.384 195.283 104.267 199.641C103.509 202.599 104.66 197.046 116.897 198.957C127.001 200.534 125.991 198.957 125.991 198.957C125.991 198.957 126.828 190.275 121.447 180.134C117.355 181.04 113.185 180.477 109.906 177.43Z" fill="#293F3A"/>
<path d="M138.691 145.379C136.942 145.525 134.917 145.425 135.087 144.716C135.251 144.03 136.802 143.212 139.077 142.607C139.347 141.239 139.742 139.88 140.318 138.533C140.361 138.46 140.428 138.395 140.48 138.326C138.401 138.465 136.268 138.73 134.455 139.223C129.404 140.597 127.126 142.301 126.192 146.238C125.774 148.001 123.088 147.357 123.088 147.357C123.088 147.357 120.814 145.561 122.583 144.082C124.17 142.755 124.625 138.534 121.323 134.704C119.813 142.134 111.787 146.051 106.367 151.224C110.94 152.067 112.067 152.598 112.437 153.448C112.437 153.448 112.648 154.187 109.237 154.082C108.045 154.045 106.072 154.044 103.783 154.12C103.403 154.641 103.055 155.178 102.751 155.738C101.89 157.176 101.449 158.961 101.517 160.759C102.896 160.096 106.068 158.732 107.048 159.715C108.312 160.983 106.469 161.95 103.006 162.673C102.553 162.767 102.169 162.822 101.834 162.849C102.167 164.061 102.755 165.218 103.644 166.21C104.185 166.963 104.613 167.747 104.987 168.543C108.457 167.072 111.593 165.805 111.593 167.637C111.593 169.199 108.902 170.759 106.324 171.809C107.135 173.879 108.027 175.861 109.905 177.431C113.185 180.479 117.354 181.042 121.447 180.135C120.851 179.012 120.183 177.871 119.424 176.721C117.404 173.659 123.087 174.186 123.971 175.56C123.971 175.56 124.961 176.697 126.218 178.424C128.579 177.259 130.768 175.7 132.571 173.97C130.335 171.872 128.425 170.338 126.625 169.222C123.215 167.109 123.088 164.574 127.508 165.102C129.574 165.349 132.606 167.88 135.365 170.7C135.534 170.451 135.695 170.201 135.844 169.95C137.227 167.802 137.998 165.58 138.41 163.31C136.51 162.223 135.088 161.441 134.96 161.405C134.581 161.299 130.286 157.602 135.971 158.87C136.985 159.096 137.924 159.405 138.793 159.761C138.883 157.797 138.81 155.807 138.72 153.806C136.47 153.291 135.327 152.921 136.223 152.109C136.71 151.667 137.555 151.359 138.609 151.172C138.541 149.241 138.523 147.306 138.691 145.379ZM124.729 156.373V155.807C124.729 155.807 127.887 155.49 128.897 156.968C129.908 158.447 125.488 159.052 124.729 156.373Z" fill="#1A2824"/>
<path d="M158.579 147.145C158.579 147.145 156.179 143.448 152.516 143.025C148.853 142.603 142.621 144.404 140.77 145.032C140.337 145.179 139.547 145.308 138.691 145.379C138.523 147.306 138.541 149.241 138.61 151.172C140.834 150.779 144.006 150.936 146.833 151.581C151.001 152.532 155.421 152.955 161.358 158.025C162.607 159.092 158.579 147.462 158.579 147.145Z" fill="#293F3A"/>
<path d="M138.793 159.761C142.792 161.398 145.245 164.071 146.075 164.678C147.086 165.418 151.343 169.643 153.635 171.438C155.927 173.233 157.189 176.509 157.189 176.509C157.189 176.509 161.724 166.793 160.599 161.932C159.842 158.657 150.368 156.968 144.685 155.278C142.36 154.587 140.277 154.162 138.72 153.806C138.81 155.807 138.883 157.797 138.793 159.761Z" fill="#293F3A"/>
<path d="M126.218 178.422C127.73 180.504 129.63 183.446 130.666 186.332C132.56 191.614 135.971 194.888 136.602 196.156C137.234 197.422 142.791 191.085 143.17 190.979C143.549 190.874 145.191 187.209 139.507 181.066C136.825 178.167 134.569 175.844 132.572 173.969C130.768 175.699 128.579 177.258 126.218 178.422Z" fill="#293F3A"/>
<path d="M135.365 170.699C138.51 173.913 141.301 177.503 141.906 178.515C143.043 180.417 147.085 188.022 147.085 188.022C147.085 188.022 152.768 179.467 153.527 178.621C154.284 177.776 150.875 171.755 148.98 169.96C147.724 168.77 142.144 165.447 138.411 163.309C137.999 165.58 137.228 167.801 135.845 169.95C135.695 170.2 135.534 170.45 135.365 170.699Z" fill="#293F3A"/>
<path d="M101.834 162.849C100.069 162.991 99.903 162.242 100.859 161.088C100.859 161.088 101.117 160.951 101.516 160.759C101.449 158.961 101.89 157.176 102.75 155.738C103.054 155.178 103.402 154.641 103.782 154.12C99.5264 154.261 94.1571 154.67 90.5435 155.631C86.2287 156.779 84.0597 159.005 82.9649 161.12C81.8701 163.235 81.4551 165.7 84.438 170.172C86.3503 173.037 81.2806 171.651 82.5436 176.087C83.8066 180.524 85.3217 181.897 85.3217 181.897C85.3217 181.897 99.3413 170.911 103.382 169.222C103.918 168.997 104.456 168.768 104.985 168.543C104.611 167.748 104.183 166.963 103.643 166.21C102.755 165.218 102.166 164.06 101.834 162.849ZM97.1955 164.361C95.3011 164.995 92.776 164.995 92.776 164.995C92.776 164.995 93.0301 162.871 97.1955 162.87C97.1955 162.87 99.0899 163.729 97.1955 164.361Z" fill="#293F3A"/>
<path d="M123.094 147.19C123.094 147.19 116.922 159.923 113.806 171.957C113.346 173.737 113.196 176.083 113.048 177.774C111.911 190.765 108.793 194.675 107.637 196.048C106.481 197.42 110.775 197.46 114.816 177.246C118.858 157.032 122.954 148.677 124.667 147.456L123.094 147.19Z" fill="#7A9987"/>
<path d="M190.368 -0.197449H188.481V69.8671H190.368V-0.197449Z" fill="#5E615D"/>
<path d="M191.477 61.4856C190.813 61.3943 190.137 61.3352 189.443 61.3352C182.535 61.3352 176.935 66.0185 176.935 71.7955V103.743H182.257C180.638 88.3072 180.24 72.7215 191.477 61.4856Z" fill="#C6C6C6"/>
<path opacity="0.2" d="M191.477 61.4856C190.813 61.3943 190.137 61.3352 189.443 61.3352C182.535 61.3352 176.935 66.0185 176.935 71.7955V103.743H182.257C180.638 88.3072 180.24 72.7215 191.477 61.4856Z" fill="#776363"/>
<path d="M134.839 185.324L136.386 184.429C136.386 184.429 139.781 188.494 147.743 193.854C150.685 195.834 164.906 205.292 167.736 206.927C169.123 207.729 155.207 200.128 149.843 196.216C144.477 192.302 134.839 185.324 134.839 185.324Z" fill="#638170"/>
<path d="M201.952 71.7955C201.952 66.599 197.416 62.2994 191.478 61.4855C180.241 72.7215 180.638 88.3065 182.257 103.743H201.952V71.7955Z" fill="#C6C6C6"/>
<path d="M237.784 0H236.602V52.3956H237.784V0Z" fill="#5E615D"/>
<path d="M246.716 53.8647C246.716 49.4656 242.452 45.9006 237.193 45.9006C231.934 45.9006 227.67 49.4664 227.67 53.8647V78.188H246.716V53.8647Z" fill="#C6C6C6"/>
<path d="M524.482 193.282H433.473L442.417 189.076H515.538L524.482 193.282Z" fill="#EAEAEA"/>
<path d="M499.594 128.775H441.998V191.178H499.594V128.775Z" fill="#3A3A3A"/>
<path d="M497.036 130.932H444.557V188.755H497.036V130.932Z" fill="#776363"/>
<path d="M473.374 147.342C475.601 147.342 477.407 145.832 477.407 143.969C477.407 142.107 475.601 140.597 473.374 140.597C471.146 140.597 469.341 142.107 469.341 143.969C469.341 145.832 471.146 147.342 473.374 147.342Z" fill="#DCFFF3"/>
<path d="M464.858 144.756C466.231 144.756 467.345 143.825 467.345 142.676C467.345 141.527 466.231 140.596 464.858 140.596C463.484 140.596 462.37 141.527 462.37 142.676C462.37 143.825 463.484 144.756 464.858 144.756Z" fill="#DCFFF3"/>
<path d="M468.593 157.669C470.544 157.669 472.126 156.346 472.126 154.715C472.126 153.083 470.544 151.76 468.593 151.76C466.642 151.76 465.06 153.083 465.06 154.715C465.06 156.346 466.642 157.669 468.593 157.669Z" fill="#DCFFF3"/>
<path d="M476.907 155.131C478.419 155.131 479.645 154.105 479.645 152.841C479.645 151.576 478.419 150.551 476.907 150.551C475.395 150.551 474.169 151.576 474.169 152.841C474.169 154.105 475.395 155.131 476.907 155.131Z" fill="#DCFFF3"/>
<path d="M466.602 164.875C468.609 164.875 470.236 163.514 470.236 161.836C470.236 160.157 468.609 158.797 466.602 158.797C464.595 158.797 462.968 160.157 462.968 161.836C462.968 163.514 464.595 164.875 466.602 164.875Z" fill="#DCFFF3"/>
<path d="M478.405 163.666C480.359 163.666 481.943 162.341 481.943 160.707C481.943 159.073 480.359 157.748 478.405 157.748C476.451 157.748 474.867 159.073 474.867 160.707C474.867 162.341 476.451 163.666 478.405 163.666Z" fill="#DCFFF3"/>
<path d="M469.791 181.861C469.704 181.086 467.754 162.897 475.671 161.469L475.859 162.202C468.714 163.49 470.662 181.607 470.683 181.791L469.791 181.861Z" fill="#DCFFF3"/>
<path d="M471.048 169.132L470.157 169.05C470.629 165.471 468.345 163.979 468.323 163.965L468.863 163.367C468.975 163.437 471.575 165.135 471.048 169.132Z" fill="#DCFFF3"/>
<path d="M471.793 166.393L470.897 166.364C471.661 149.847 464.806 143.664 464.737 143.604L465.382 143.084C465.676 143.34 472.572 149.516 471.793 166.393Z" fill="#DCFFF3"/>
<path d="M469.532 155.193C468.311 149.259 471.67 146.442 471.814 146.326L472.44 146.861C472.408 146.888 469.278 149.544 470.417 155.066L469.532 155.193Z" fill="#DCFFF3"/>
<path d="M470.797 159.843C470.754 156.973 471.419 155.008 472.778 154.001C473.819 153.229 474.883 153.338 474.926 153.344L474.807 154.086L474.867 153.715L474.811 154.086C474.782 154.086 474.075 154.028 473.346 154.58C472.564 155.174 471.642 156.568 471.692 159.835L470.797 159.843Z" fill="#DCFFF3"/>
<path d="M497.038 188.755L499.597 191.178V128.775L497.038 130.933V188.755Z" fill="#727272"/>
<path d="M444.557 188.621L441.998 191.045V128.641L444.557 130.799V188.621Z" fill="#111111"/>
<path opacity="0.7" d="M499.513 132.478L511.792 188.755H499.597L499.513 132.478Z" fill="#C6C6C6"/>
<path d="M526.997 184.607H481.485V193.02H526.997V184.607Z" fill="#DED5C6"/>
<path d="M530.769 180.663H487.072V184.607H530.769V180.663Z" fill="#E9E7DE"/>
<path d="M524.536 177.071H481.539V181.542H524.536V177.071Z" fill="#CDCAC6"/>
<path d="M527.051 172.865H481.539V177.071H527.051V172.865Z" fill="#DED5C6"/>
<path d="M532.395 169.184H489.956V172.865H532.395V169.184Z" fill="#E9E7DE"/>
<path opacity="0.4" d="M349.237 141.061C376.515 141.061 398.629 122.568 398.629 99.7556C398.629 76.9432 376.515 58.4501 349.237 58.4501C321.959 58.4501 299.846 76.9432 299.846 99.7556C299.846 122.568 321.959 141.061 349.237 141.061Z" fill="#A81818"/>
<path d="M345.916 135.892C372.063 135.892 393.259 118.166 393.259 96.2998C393.259 74.4334 372.063 56.7072 345.916 56.7072C319.77 56.7072 298.573 74.4334 298.573 96.2998C298.573 118.166 319.77 135.892 345.916 135.892Z" fill="black"/>
<path d="M391.401 96.2998C391.401 75.2917 371.037 58.2609 345.916 58.2609C320.795 58.2609 300.431 75.291 300.431 96.2998C300.431 98.0935 300.59 99.8551 300.878 101.583H390.954C391.241 99.8559 391.401 98.0935 391.401 96.2998Z" fill="#FCA39F"/>
<path d="M300.877 101.583C303.955 120.089 322.941 134.338 345.916 134.338C368.892 134.338 387.876 120.089 390.954 101.583H300.877Z" fill="#776363"/>
<path d="M335.69 102.064L338.742 103.021L358.96 71.7559H357.625L335.69 102.064Z" fill="black"/>
<path d="M335.69 89.3029L333.782 90.8984L374.411 117.856V116.899L335.69 89.3029Z" fill="black"/>
<path d="M343.75 81.3582L342.857 81.3055L339.241 124.215L340.134 124.268L343.75 81.3582Z" fill="black"/>
<path d="M344.932 61.3016V69.4587H344.195V61.9307H343.595V61.3016H344.932V61.3016ZM343.65 61.3592V61.8723H344.263V69.4004H344.863V61.3592H343.65ZM344.737 61.4639V69.2949H344.389V61.7549H343.762V61.4631H344.737V61.4639Z" fill="white"/>
<path d="M349.237 64.0513C349.224 64.6459 348.584 65.1471 347.886 65.6946C347.245 66.1839 346.645 66.6738 346.618 67.1398V68.8176H349.237V69.4587H345.88V67.1279C345.922 66.394 346.66 65.7874 347.398 65.2279C347.941 64.8202 348.499 64.3422 348.513 64.0505V62.8036C348.513 62.081 348.052 61.8596 347.607 61.8596C346.98 61.8596 346.659 62.2672 346.659 62.8387V63.4678H345.949V62.8148C345.949 61.6845 346.826 61.2297 347.607 61.2297C348.332 61.2297 349.236 61.6374 349.236 62.7916V64.0513H349.237ZM349.169 62.7931C349.169 61.6741 348.291 61.2896 347.608 61.2896C346.842 61.2896 346.019 61.7324 346.019 62.8163V63.411H346.591V62.8395C346.591 62.2336 346.94 61.8027 347.609 61.8027C348.082 61.8027 348.598 62.0361 348.598 62.8051V64.052C348.584 64.3669 347.999 64.8561 347.455 65.2645C346.745 65.8001 345.991 66.4412 345.95 67.1293V69.4018H349.169V68.8775H346.55V67.1293C346.576 66.6514 347.203 66.1622 347.831 65.661C348.528 65.1247 349.169 64.6235 349.169 64.0528V62.7931H349.169ZM349.057 64.0513C349.042 64.5756 348.415 65.0536 347.761 65.566C347.093 66.0904 346.451 66.5915 346.423 67.1279C346.423 67.2445 346.423 68.4331 346.423 68.9927H349.057V69.2956H346.075C346.075 69.1325 346.075 67.2909 346.075 67.1286C346.117 66.4644 346.813 65.9048 347.524 65.3573C348.109 64.9145 348.708 64.4133 348.722 64.052V62.8051C348.722 61.9426 348.151 61.686 347.608 61.686C346.855 61.686 346.466 62.1752 346.466 62.8395V63.2943H346.145V62.8163C346.145 61.8139 346.911 61.395 347.609 61.395C348.25 61.395 349.058 61.7563 349.058 62.7938V64.0513H349.057Z" fill="white"/>
<path d="M383.888 96.3005H384.418C385.045 96.2661 385.366 95.7761 385.366 95.2166V93.55C385.366 92.897 384.989 92.5941 384.488 92.5941C383.847 92.5941 383.485 92.9786 383.485 93.5613V94.2016H382.788V93.5493C382.788 92.3143 383.707 91.9755 384.488 91.9755C385.352 91.9755 386.105 92.4647 386.105 93.5373V95.2151C386.105 95.9145 385.882 96.2526 385.421 96.5788C386.035 96.8705 386.216 97.4876 386.216 98.1286V98.5827C386.216 99.5267 385.575 100.319 384.461 100.319C383.415 100.319 382.677 99.6082 382.677 98.5939V97.8601H383.387V98.5939C383.387 99.235 383.778 99.6658 384.461 99.6658C385.101 99.6658 385.491 99.223 385.491 98.5819V98.1279C385.491 97.4988 385.226 96.9393 384.432 96.9393H383.889V96.3005H383.888ZM383.957 96.8832H384.431C385.267 96.8832 385.56 97.4659 385.56 98.1301V98.5842C385.56 99.2484 385.141 99.7264 384.46 99.7264C383.734 99.7264 383.317 99.2724 383.317 98.5962V97.92H382.745V98.5962C382.745 99.5753 383.456 100.263 384.46 100.263C385.532 100.263 386.146 99.517 386.146 98.5842V98.1301C386.146 97.4076 385.895 96.8712 385.309 96.5915C385.825 96.2653 386.034 95.8105 386.034 95.2166V93.5388C386.034 92.5013 385.324 92.0241 384.487 92.0241C383.734 92.0241 382.857 92.3622 382.857 93.5508V94.1447H383.428V93.562C383.428 92.9441 383.805 92.5484 384.488 92.5484C385.004 92.5484 385.436 92.8626 385.436 93.5508V95.2174C385.436 95.8113 385.088 96.3244 384.419 96.3596H383.958V96.8832H383.957ZM384.082 96.4636H384.431C385.169 96.4404 385.56 95.8696 385.56 95.2166V93.55C385.56 92.7923 385.087 92.431 384.487 92.431C383.734 92.431 383.303 92.8738 383.303 93.5613V94.0273H382.983V93.5493C382.983 92.4534 383.805 92.1393 384.488 92.1393C385.254 92.1393 385.91 92.5701 385.91 93.5381V95.2159C385.91 95.8218 385.631 96.311 385.032 96.6027C385.728 96.8241 386.021 97.3604 386.021 98.1294V98.5834C386.021 99.4459 385.449 100.145 384.461 100.145C383.527 100.145 382.872 99.5162 382.872 98.5954V98.0359H383.192V98.5954C383.192 99.3412 383.665 99.8304 384.461 99.8304C385.226 99.8304 385.687 99.3172 385.687 98.5834V98.1294C385.687 97.4068 385.367 96.7658 384.433 96.7658H384.084V96.4636H384.082Z" fill="white"/>
<path d="M308.188 97.6986V98.5723C308.16 99.5282 307.561 100.285 306.418 100.285C305.275 100.285 304.634 99.5282 304.634 98.5723V93.7012C304.634 92.734 305.345 91.9882 306.432 91.9882C307.546 91.9882 308.146 92.6876 308.146 93.7131V94.156H307.435V93.7131C307.435 93.0721 307.101 92.6061 306.432 92.6061C305.777 92.6061 305.386 93.0257 305.359 93.7012V96.3469C305.651 96.1135 306.084 95.9737 306.446 95.9737C307.491 95.9744 308.188 96.5803 308.188 97.6986ZM305.29 96.4868V93.7012C305.318 92.9906 305.735 92.5597 306.432 92.5597C307.142 92.5597 307.491 93.0377 307.491 93.7131V94.0976H308.076V93.7131C308.076 92.7228 307.491 92.0466 306.432 92.0466C305.386 92.0466 304.704 92.7572 304.704 93.7012V98.5723C304.704 99.505 305.318 100.227 306.418 100.227C307.532 100.227 308.089 99.5163 308.117 98.5723V97.6986C308.117 96.6267 307.448 96.032 306.445 96.032C306.041 96.0328 305.61 96.1958 305.29 96.4868ZM307.993 97.6986V98.5723C307.965 99.446 307.435 100.111 306.418 100.111C305.4 100.111 304.829 99.4347 304.829 98.5723C304.829 97.3253 304.829 94.7387 304.829 93.7012C304.829 92.8275 305.456 92.1513 306.432 92.1513C307.421 92.1513 307.951 92.7923 307.951 93.7124V93.9922H307.616V93.7124C307.616 92.9666 307.225 92.4423 306.432 92.4423C305.665 92.4423 305.191 92.9203 305.164 93.7004V96.789C305.456 96.3694 305.986 96.1479 306.446 96.1479C307.379 96.1494 307.993 96.697 307.993 97.6986ZM307.658 97.6986C307.658 96.8361 307.226 96.4397 306.446 96.4397C305.651 96.4397 305.178 96.9992 305.178 97.6866C305.178 97.6634 305.178 98.3396 305.178 98.5723C305.178 99.2365 305.61 99.796 306.419 99.796C307.241 99.796 307.659 99.2365 307.659 98.5611V97.6986H307.658ZM307.532 98.5611C307.532 99.1789 307.156 99.6913 306.418 99.6913C305.679 99.6913 305.303 99.1782 305.303 98.5723V97.6866C305.303 97.0575 305.721 96.5451 306.445 96.5451C307.156 96.5451 307.532 96.9184 307.532 97.6986V98.5611ZM307.462 97.6986C307.462 96.9528 307.101 96.6035 306.445 96.6035C305.762 96.6035 305.358 97.0815 305.358 97.6874V98.573C305.358 99.1445 305.734 99.6337 306.418 99.6337C307.114 99.6337 307.462 99.1445 307.462 98.5611V97.6986Z" fill="white"/>
<path d="M348.208 130.076C348.208 131.056 347.539 131.801 346.397 131.801C345.323 131.801 344.655 130.997 344.655 130.065V129.622H345.365V130.065C345.365 130.672 345.742 131.149 346.397 131.149C347.135 131.149 347.511 130.682 347.511 130.076V128.305C347.246 128.55 346.856 128.759 346.452 128.759C345.058 128.759 344.654 127.64 344.654 126.662V125.52C344.654 124.529 345.156 123.48 346.452 123.48C347.72 123.48 348.208 124.459 348.208 125.531V130.076ZM348.138 125.532C348.138 124.494 347.664 123.539 346.452 123.539C345.198 123.539 344.71 124.552 344.71 125.52V126.662C344.71 127.617 345.101 128.701 346.452 128.701C346.898 128.701 347.316 128.456 347.567 128.153V130.076C347.567 130.705 347.176 131.206 346.396 131.206C345.685 131.206 345.308 130.693 345.308 130.064V129.668H344.723V130.064C344.723 130.961 345.364 131.742 346.396 131.742C347.496 131.742 348.137 131.032 348.137 130.076V125.532H348.138ZM348.026 130.076C348.026 130.962 347.427 131.626 346.397 131.626C345.435 131.626 344.85 130.904 344.85 130.065V129.785H345.185V130.065C345.185 130.764 345.616 131.311 346.397 131.311C347.261 131.311 347.692 130.764 347.692 130.076V127.711C347.511 128.188 347.05 128.584 346.452 128.584C345.198 128.584 344.835 127.559 344.835 126.662C344.835 126.301 344.835 125.951 344.835 125.52C344.835 124.611 345.295 123.644 346.452 123.644C347.581 123.644 348.026 124.552 348.026 125.532V130.076ZM347.664 125.532C347.664 124.786 347.414 123.958 346.453 123.958C345.534 123.958 345.185 124.774 345.185 125.52C345.185 126.23 345.185 125.636 345.185 126.662C345.185 127.291 345.393 128.27 346.453 128.27C347.317 128.27 347.664 127.315 347.664 126.65V125.532ZM347.553 126.65C347.553 127.268 347.219 128.165 346.453 128.165C345.491 128.165 345.31 127.244 345.31 126.661V125.519C345.31 124.831 345.63 124.074 346.453 124.074C347.317 124.074 347.553 124.843 347.553 125.53V126.65ZM347.482 125.532C347.482 124.867 347.26 124.122 346.452 124.122C345.671 124.122 345.379 124.855 345.379 125.52V126.663C345.379 127.222 345.547 128.108 346.452 128.108C347.177 128.108 347.482 127.245 347.482 126.651V125.532Z" fill="white"/>
<path opacity="0.2" d="M238.678 46.1048C238.175 46.036 237.664 45.9911 237.138 45.9911C231.908 45.9911 227.669 49.5359 227.669 53.9096V78.0945H231.698C230.472 66.409 230.172 54.6105 238.678 46.1048Z" fill="#776363"/>
<path d="M436.773 259.14L433.473 261.111V193.282L436.773 195.254V259.14Z" fill="#C6C6C6"/>
<path d="M521.448 259.141L524.748 261.112V193.283L521.448 195.255V259.141Z" fill="#EFEFEF"/>
<path opacity="0.5" d="M527.051 172.865H532.395L524.537 181.542V177.071H527.051V172.865Z" fill="#CDCBC4"/>
<path opacity="0.5" d="M527.051 184.607H530.664L527.051 188.813V184.607Z" fill="#CDCBC4"/>
<path d="M265.732 298.364C265.692 297.865 261.658 248.471 261.41 246.443C261.388 246.258 261.37 246.06 261.352 245.855C261.152 243.614 260.85 240.227 251.901 238.232C247.761 237.309 240.675 236.128 233.173 234.88C222.364 233.08 211.186 231.218 206.688 229.789C197.814 226.969 191.678 217.182 188.094 209.466C185.077 202.973 181.454 189.622 178.542 178.893C176.385 170.948 174.523 164.087 173.492 162.095C171.014 157.312 165.7 158.028 165.646 158.037L165.493 157.301C165.552 157.294 171.557 156.481 174.312 161.798C175.376 163.854 177.247 170.746 179.414 178.728C182.319 189.432 185.935 202.755 188.927 209.196C193.973 220.056 200.225 226.936 207.006 229.09C211.434 230.498 222.574 232.352 233.348 234.147C240.864 235.398 247.962 236.58 252.131 237.509C261.694 239.642 262.038 243.497 262.243 245.799C262.261 245.999 262.278 246.189 262.299 246.369C262.548 248.409 266.457 296.278 266.624 298.314L265.732 298.364Z" fill="#967364"/>
<path d="M31.2374 165.985C31.2374 165.985 30.4207 166.05 29.9547 165.927C28.9387 165.661 23.6722 171.732 21.2876 174.163C18.903 176.594 13.0998 181.853 10.9639 183.513C10.6034 183.794 19.2885 177.151 22.5541 173.602C25.7446 170.137 29.4476 166.534 31.2374 165.985Z" fill="#638170"/>
</svg>
